<svg width="38" height="38" viewBox="0 0 38 38" fill="none" xmlns="http://www.w3.org/2000/svg">
<g clip-path="url(#clip0)">
<path d="M19.7642 28.1484V34.3619C19.7642 34.6694 20.0133 34.9185 20.3208 34.9185C20.6283 34.9185 20.8774 34.6694 20.8774 34.3619V28.1484C20.8774 27.8409 20.6283 27.5918 20.3208 27.5918C20.0133 27.5918 19.7642 27.841 19.7642 28.1484Z" fill="#5FB34E" stroke="#5FB34E" stroke-width="0.2"/>
<path d="M20.3203 25.3657C20.0129 25.3657 19.7637 25.6149 19.7637 25.9224C19.7637 26.2298 20.0129 26.479 20.3203 26.479C20.6277 26.479 20.877 26.2298 20.877 25.9224C20.877 25.6149 20.6277 25.3657 20.3203 25.3657Z" fill="#5FB34E" stroke="#5FB34E" stroke-width="0.2"/>
<path d="M33.6878 8.77407L30.8449 5.93067V1.68937C30.845 0.757848 30.0872 0 29.1559 0H5.81748C4.89769 0 4.14941 0.748348 4.14941 1.66829V29.6579C4.14941 30.5778 4.89769 31.3261 5.81748 31.3261H6.76102V32.2561C6.76102 33.1759 7.5093 33.9243 8.42902 33.9243H11.3716C11.6791 33.9243 11.9282 33.6751 11.9282 33.3676C11.9282 33.0602 11.6791 32.811 11.3716 32.811H8.42902C8.12316 32.811 7.87431 32.5621 7.87431 32.2561V9.87028C7.87431 9.56279 7.62515 9.31364 7.31766 9.31364C7.01018 9.31364 6.76102 9.56279 6.76102 9.87028V30.2128H5.81748C5.51162 30.2128 5.2627 29.9638 5.2627 29.6578V1.66829C5.2627 1.36229 5.51162 1.11328 5.81748 1.11328H29.1559C29.4734 1.11328 29.7317 1.37164 29.7317 1.68937V4.81724L27.6762 2.76131C27.5718 2.65688 27.4302 2.59825 27.2825 2.59825H8.42894C7.50922 2.59825 6.76095 3.3466 6.76095 4.26654V7.27849C6.76095 7.58597 7.0101 7.83513 7.31759 7.83513C7.62508 7.83513 7.87423 7.58597 7.87423 7.27849V4.26639C7.87423 3.96039 8.12309 3.71138 8.42894 3.71138H26.7258V9.16661C26.7258 9.47403 26.9749 9.72318 27.2824 9.72325L32.7375 9.72414V32.2559C32.7375 32.5619 32.4886 32.8109 32.1827 32.8109H29.2677C28.9602 32.8109 28.7111 33.06 28.7111 33.3675C28.7111 33.675 28.9602 33.9241 29.2677 33.9241H32.1827C33.1025 33.9241 33.8508 33.1758 33.8508 32.2559V9.16758C33.8509 9.01996 33.7922 8.87842 33.6878 8.77407ZM27.8391 8.61012V4.49884L31.9503 8.61079L27.8391 8.61012Z" fill="#5FB34E" stroke="#5FB34E" stroke-width="0.2"/>
<path d="M13.6611 13.2476H26.9775C27.285 13.2476 27.5342 12.9984 27.5342 12.6909C27.5342 12.3834 27.285 12.1343 26.9775 12.1343H13.6611C13.3536 12.1343 13.1045 12.3834 13.1045 12.6909C13.1045 12.9984 13.3537 13.2476 13.6611 13.2476Z" fill="#5FB34E" stroke="#5FB34E" stroke-width="0.2"/>
<path d="M13.6611 16.5313H26.9775C27.285 16.5313 27.5342 16.2821 27.5342 15.9746C27.5342 15.6671 27.285 15.418 26.9775 15.418H13.6611C13.3536 15.418 13.1045 15.6671 13.1045 15.9746C13.1045 16.2821 13.3537 16.5313 13.6611 16.5313Z" fill="#5FB34E" stroke="#5FB34E" stroke-width="0.2"/>
<path d="M26.9779 18.7671H24.3472C24.0397 18.7671 23.7905 19.0162 23.7905 19.3237C23.7905 19.6312 24.0397 19.8804 24.3472 19.8804H26.9779C27.2854 19.8804 27.5346 19.6312 27.5346 19.3237C27.5346 19.0162 27.2854 18.7671 26.9779 18.7671Z" fill="#5FB34E" stroke="#5FB34E" stroke-width="0.2"/>
<path d="M13.6611 19.8804H21.727C22.0345 19.8804 22.2836 19.6312 22.2836 19.3237C22.2836 19.0162 22.0345 18.7671 21.727 18.7671H13.6611C13.3536 18.7671 13.1045 19.0162 13.1045 19.3237C13.1045 19.6312 13.3537 19.8804 13.6611 19.8804Z" fill="#5FB34E" stroke="#5FB34E" stroke-width="0.2"/>
<path d="M20.3208 22.2842C17.0227 22.2842 14.0527 24.3669 12.9303 27.4666C12.8257 27.7557 12.9751 28.0748 13.2642 28.1794C13.5535 28.2841 13.8724 28.1346 13.977 27.8456C14.9403 25.1849 17.4897 23.3974 20.3208 23.3974C24.0397 23.3974 27.0654 26.4231 27.0654 30.1421C27.0654 33.861 24.0397 36.8867 20.3208 36.8867C16.6018 36.8867 13.5762 33.861 13.5762 30.1421C13.5762 29.8346 13.327 29.5854 13.0195 29.5854C12.712 29.5854 12.4629 29.8346 12.4629 30.1421C12.4629 34.475 15.9879 38 20.3208 38C24.6537 38 28.1787 34.475 28.1787 30.1421C28.1787 25.8092 24.6537 22.2842 20.3208 22.2842Z" fill="#5FB34E" stroke="#5FB34E" stroke-width="0.2"/>
</g>
<defs>
<clipPath id="clip0">
<rect width="38" height="38" fill="white"/>
</clipPath>
</defs>
</svg>
