<svg width="35" height="35" viewBox="0 0 35 35" fill="none" xmlns="http://www.w3.org/2000/svg">
<g clip-path="url(#clip0)">
<path d="M5.16113 16.1131C4.87782 16.1131 4.64844 15.8834 4.64844 15.6004V1.87988C4.64844 0.843277 5.49171 0 6.52832 0H28.5208C29.5574 0 30.4007 0.843277 30.4007 1.87988V4.32159C30.4007 4.60491 30.1713 4.83429 29.888 4.83429C29.6049 4.83429 29.3753 4.60491 29.3753 4.32159V1.87988C29.3753 1.40858 28.9921 1.02539 28.5208 1.02539H6.52832C6.05701 1.02539 5.67383 1.40858 5.67383 1.87988V15.6004C5.67383 15.8834 5.44418 16.1131 5.16113 16.1131Z" fill="#5FB34E" stroke="#5FB34E" stroke-width="0.2"/>
<path d="M28.5206 34.9998H14.9814C14.6981 34.9998 14.4688 34.7704 14.4688 34.4871C14.4688 34.2038 14.6981 33.9744 14.9814 33.9744H28.5206C28.9919 33.9744 29.3751 33.5912 29.3751 33.1199V6.68115C29.3751 6.3981 29.6047 6.16846 29.8878 6.16846C30.1711 6.16846 30.4005 6.3981 30.4005 6.68115V33.1199C30.4005 34.1565 29.5572 34.9998 28.5206 34.9998Z" fill="#5FB34E" stroke="#5FB34E" stroke-width="0.2"/>
<path d="M12.6217 35.0004H6.52832C5.49171 35.0004 4.64844 34.1571 4.64844 33.1205V17.9604C4.64844 17.6774 4.87782 17.4478 5.16113 17.4478C5.44445 17.4478 5.67383 17.6774 5.67383 17.9604V33.1205C5.67383 33.5918 6.05701 33.975 6.52832 33.975H12.6219C12.905 33.975 13.1346 34.2043 13.1346 34.4877C13.1346 34.771 12.905 35.0004 12.6217 35.0004Z" fill="#5FB34E" stroke="#5FB34E" stroke-width="0.2"/>
<path d="M10.5869 9.18969C9.17194 9.18969 8.02051 8.03853 8.02051 6.62328C8.02051 5.20829 9.17194 4.05713 10.5869 4.05713C12.0019 4.05713 13.1533 5.20829 13.1533 6.62328C13.1533 8.03853 12.0019 9.18969 10.5869 9.18969ZM10.5869 5.08252C9.73724 5.08252 9.0459 5.77359 9.0459 6.62328C9.0459 7.47296 9.73724 8.1643 10.5869 8.1643C11.4366 8.1643 12.1279 7.47296 12.1279 6.62328C12.1279 5.77359 11.4366 5.08252 10.5869 5.08252Z" fill="#5FB34E" stroke="#5FB34E" stroke-width="0.2"/>
<path d="M26.7793 6.80572H15.9987C15.7541 6.80572 15.5557 6.58823 15.5557 6.31961C15.5557 6.05098 15.7541 5.8335 15.9987 5.8335H26.7793C27.0241 5.8335 27.2223 6.05098 27.2223 6.31961C27.2223 6.58823 27.0241 6.80572 26.7793 6.80572Z" fill="#5FB34E" stroke="#5FB34E" stroke-width="0.2"/>
<path d="M10.5869 16.4404C9.17194 16.4404 8.02051 15.289 8.02051 13.874C8.02051 12.4588 9.17194 11.3076 10.5869 11.3076C12.0019 11.3076 13.1533 12.4588 13.1533 13.874C13.1533 15.289 12.0019 16.4404 10.5869 16.4404ZM10.5869 12.333C9.73724 12.333 9.0459 13.0243 9.0459 13.874C9.0459 14.7237 9.73724 15.4151 10.5869 15.4151C11.4366 15.4151 12.1279 14.7237 12.1279 13.874C12.1279 13.0243 11.4366 12.333 10.5869 12.333Z" fill="#5FB34E" stroke="#5FB34E" stroke-width="0.2"/>
<path d="M26.7793 14.5835H15.9987C15.7541 14.5835 15.5557 14.3658 15.5557 14.0974C15.5557 13.8288 15.7541 13.6113 15.9987 13.6113H26.7793C27.0241 13.6113 27.2223 13.8288 27.2223 14.0974C27.2223 14.3658 27.0241 14.5835 26.7793 14.5835Z" fill="#5FB34E" stroke="#5FB34E" stroke-width="0.2"/>
<path d="M10.5869 23.6914C9.17194 23.6914 8.02051 22.5403 8.02051 21.125C8.02051 19.71 9.17194 18.5586 10.5869 18.5586C12.0019 18.5586 13.1533 19.71 13.1533 21.125C13.1533 22.5403 12.0019 23.6914 10.5869 23.6914ZM10.5869 19.584C9.73724 19.584 9.0459 20.2753 9.0459 21.125C9.0459 21.9747 9.73724 22.666 10.5869 22.666C11.4366 22.666 12.1279 21.9747 12.1279 21.125C12.1279 20.2753 11.4366 19.584 10.5869 19.584Z" fill="#5FB34E" stroke="#5FB34E" stroke-width="0.2"/>
<path d="M26.7793 21.3887H15.9987C15.7541 21.3887 15.5557 21.1712 15.5557 20.9026C15.5557 20.634 15.7541 20.4165 15.9987 20.4165H26.7793C27.0241 20.4165 27.2223 20.634 27.2223 20.9026C27.2223 21.1712 27.0241 21.3887 26.7793 21.3887Z" fill="#5FB34E" stroke="#5FB34E" stroke-width="0.2"/>
<path d="M10.5869 30.9431C9.17194 30.9431 8.02051 29.7919 8.02051 28.377C8.02051 26.9617 9.17194 25.8105 10.5869 25.8105C12.0019 25.8105 13.1533 26.9617 13.1533 28.377C13.1533 29.7919 12.0019 30.9431 10.5869 30.9431ZM10.5869 26.8359C9.73724 26.8359 9.0459 27.5273 9.0459 28.377C9.0459 29.2266 9.73724 29.9177 10.5869 29.9177C11.4366 29.9177 12.1279 29.2266 12.1279 28.377C12.1279 27.5273 11.4366 26.8359 10.5869 26.8359Z" fill="#5FB34E" stroke="#5FB34E" stroke-width="0.2"/>
<path d="M26.7793 29.1666H15.9987C15.7541 29.1666 15.5557 28.9491 15.5557 28.6804C15.5557 28.4121 15.7541 28.1943 15.9987 28.1943H26.7793C27.0241 28.1943 27.2223 28.4121 27.2223 28.6804C27.2223 28.9491 27.0241 29.1666 26.7793 29.1666Z" fill="#5FB34E" stroke="#5FB34E" stroke-width="0.2"/>
</g>
<defs>
<clipPath id="clip0">
<rect width="35" height="35" fill="white"/>
</clipPath>
</defs>
</svg>
