<svg width="20" height="20" viewBox="0 0 20 20" fill="none" xmlns="http://www.w3.org/2000/svg">
<path d="M19.6077 8.97102L11.2523 0.615307C10.5618 -0.0732594 9.43884 -0.0742363 8.74685 0.616243L0.391546 8.97102C-0.130841 9.49332 -0.130841 10.3406 0.391546 10.8629C0.914259 11.3856 1.76095 11.3856 2.28358 10.8629L3.41618 9.73012V18.4755C3.41618 19.2627 4.05444 19.9009 4.84179 19.9009H7.88722V15.9278C7.88722 15.6191 8.13736 15.3685 8.44656 15.3685H11.5541C11.863 15.3685 12.1133 15.6191 12.1133 15.9278V19.901H15.1582C15.9456 19.901 16.5838 19.2628 16.5838 18.4755V9.73085L17.7158 10.8629C17.9772 11.1243 18.3195 11.2549 18.6617 11.2549C19.004 11.2549 19.3463 11.1243 19.6077 10.8629C20.1305 10.3406 20.1305 9.49337 19.6077 8.97102Z" fill="#21222F"/>
</svg>
