<svg width="41" height="41" viewBox="0 0 41 41" fill="none" xmlns="http://www.w3.org/2000/svg">
<path d="M32.9581 0H8.04258C6.37351 0 5.01562 1.35788 5.01562 3.02695V29.773C5.01562 30.1047 5.28453 30.3736 5.61621 30.3736C5.94789 30.3736 6.2168 30.1047 6.2168 29.773V3.02695C6.2168 2.02021 7.03584 1.20117 8.04258 1.20117H32.9581C33.9648 1.20117 34.7839 2.02021 34.7839 3.02695V7.8877C34.7839 8.21938 35.0527 8.48828 35.3845 8.48828C35.7162 8.48828 35.985 8.21938 35.985 7.8877V3.02695C35.985 1.35788 34.6272 0 32.9581 0V0Z" fill="#5FB34E"/>
<path d="M35.3845 10.0898C35.0527 10.0898 34.7839 10.3587 34.7839 10.6904V37.973C34.7839 38.9798 33.9648 39.7988 32.9581 39.7988H8.04258C7.03584 39.7988 6.2168 38.9798 6.2168 37.973V32.5758C6.2168 32.2441 5.94789 31.9752 5.61621 31.9752C5.28453 31.9752 5.01562 32.2441 5.01562 32.5758V37.973C5.01562 39.6421 6.37351 41 8.04258 41H32.9581C34.6272 41 35.985 39.6421 35.985 37.973V10.6904C35.985 10.3587 35.7162 10.0898 35.3845 10.0898Z" fill="#5FB34E"/>
<path d="M31.1779 2.58887H9.82266C8.59954 2.58887 7.60449 3.58392 7.60449 4.80703V8.04219C7.60449 9.2657 8.59954 10.2612 9.82266 10.2612H11.7232C12.0548 10.2612 12.3237 9.99225 12.3237 9.66057C12.3237 9.32888 12.0548 9.05998 11.7232 9.05998H9.82266C9.26187 9.05998 8.80566 8.60337 8.80566 8.04219V4.80703C8.80566 4.24632 9.26187 3.79004 9.82266 3.79004H31.1779C31.7387 3.79004 32.1949 4.24624 32.1949 4.80703V8.04219C32.1949 8.60337 31.7387 9.05998 31.1779 9.05998H14.5259C14.1942 9.05998 13.9253 9.32888 13.9253 9.66057C13.9253 9.99225 14.1942 10.2612 14.5259 10.2612H31.1779C32.401 10.2612 33.3961 9.2657 33.3961 8.04219V4.80703C33.3961 3.58392 32.401 2.58887 31.1779 2.58887Z" fill="#5FB34E"/>
<path d="M33.3967 13.3809C33.3967 13.0492 33.1279 12.7803 32.7961 12.7803H28.7515C28.4197 12.7803 28.1509 13.0492 28.1509 13.3809V17.4254C28.1509 17.7571 28.4197 18.026 28.7515 18.026H32.7961C33.1279 18.026 33.3967 17.7571 33.3967 17.4254V13.3809ZM32.1955 16.8249H29.3521V13.9815H32.1955V16.8249Z" fill="#5FB34E"/>
<path d="M26.6018 13.3809C26.6018 13.0492 26.333 12.7803 26.0012 12.7803H21.9565C21.6248 12.7803 21.356 13.0492 21.356 13.3809V17.4254C21.356 17.7571 21.6248 18.026 21.9565 18.026H26.0012C26.333 18.026 26.6018 17.7571 26.6018 17.4254V13.3809ZM25.4006 16.8249H22.5571V13.9815H25.4006V16.8249Z" fill="#5FB34E"/>
<path d="M7.604 17.4259C7.604 17.7576 7.87291 18.0265 8.20459 18.0265H12.2492C12.5809 18.0265 12.8498 17.7576 12.8498 17.4259V13.3813C12.8498 13.0497 12.5809 12.7808 12.2492 12.7808H8.20459C7.87291 12.7808 7.604 13.0497 7.604 13.3813V17.4259ZM8.80518 13.9819H11.6486V16.8253H8.80518V13.9819Z" fill="#5FB34E"/>
<path d="M19.6447 13.3809C19.6447 13.0492 19.3758 12.7803 19.0441 12.7803H14.9995C14.6678 12.7803 14.3989 13.0492 14.3989 13.3809V17.4254C14.3989 17.7571 14.6678 18.026 14.9995 18.026H19.0441C19.3758 18.026 19.6447 17.7571 19.6447 17.4254V13.3809ZM18.4435 16.8249H15.6001V13.9815H18.4435V16.8249Z" fill="#5FB34E"/>
<path d="M33.3967 20.1763C33.3967 19.8446 33.1279 19.5757 32.7961 19.5757H28.7515C28.4197 19.5757 28.1509 19.8446 28.1509 20.1763V24.2209C28.1509 24.5526 28.4197 24.8215 28.7515 24.8215H32.7961C33.1279 24.8215 33.3967 24.5526 33.3967 24.2209V20.1763ZM32.1955 23.6203H29.3521V20.7769H32.1955V23.6203Z" fill="#5FB34E"/>
<path d="M26.6018 20.1763C26.6018 19.8446 26.333 19.5757 26.0012 19.5757H21.9565C21.6248 19.5757 21.356 19.8446 21.356 20.1763V24.2209C21.356 24.5526 21.6248 24.8215 21.9565 24.8215H26.0012C26.333 24.8215 26.6018 24.5526 26.6018 24.2209V20.1763ZM25.4006 23.6203H22.5571V20.7769H25.4006V23.6203Z" fill="#5FB34E"/>
<path d="M7.604 24.2209C7.604 24.5526 7.87291 24.8215 8.20459 24.8215H12.2492C12.5809 24.8215 12.8498 24.5526 12.8498 24.2209V20.1763C12.8498 19.8446 12.5809 19.5757 12.2492 19.5757H8.20459C7.87291 19.5757 7.604 19.8446 7.604 20.1763V24.2209ZM8.80518 20.7769H11.6486V23.6203H8.80518V20.7769Z" fill="#5FB34E"/>
<path d="M19.6447 20.1763C19.6447 19.8446 19.3758 19.5757 19.0441 19.5757H14.9995C14.6678 19.5757 14.3989 19.8446 14.3989 20.1763V24.2209C14.3989 24.5526 14.6678 24.8215 14.9995 24.8215H19.0441C19.3758 24.8215 19.6447 24.5526 19.6447 24.2209V20.1763ZM18.4435 23.6203H15.6001V20.7769H18.4435V23.6203Z" fill="#5FB34E"/>
<path d="M26.6018 26.9717C26.6018 26.64 26.333 26.3711 26.0012 26.3711H21.9565C21.6248 26.3711 21.356 26.64 21.356 26.9717V31.0163C21.356 31.348 21.6248 31.6169 21.9565 31.6169H26.0012C26.333 31.6169 26.6018 31.348 26.6018 31.0163V26.9717ZM25.4006 30.4157H22.5571V27.5723H25.4006V30.4157Z" fill="#5FB34E"/>
<path d="M7.604 31.0163C7.604 31.348 7.87291 31.6169 8.20459 31.6169H12.2492C12.5809 31.6169 12.8498 31.348 12.8498 31.0163V26.9717C12.8498 26.64 12.5809 26.3711 12.2492 26.3711H8.20459C7.87291 26.3711 7.604 26.64 7.604 26.9717V31.0163ZM8.80518 27.5723H11.6486V30.4157H8.80518V27.5723Z" fill="#5FB34E"/>
<path d="M19.6447 26.9717C19.6447 26.64 19.3758 26.3711 19.0441 26.3711H14.9995C14.6678 26.3711 14.3989 26.64 14.3989 26.9717V31.0163C14.3989 31.348 14.6678 31.6169 14.9995 31.6169H19.0441C19.3758 31.6169 19.6447 31.348 19.6447 31.0163V26.9717ZM18.4435 30.4157H15.6001V27.5723H18.4435V30.4157Z" fill="#5FB34E"/>
<path d="M32.7961 26.3711H28.7515C28.4197 26.3711 28.1509 26.64 28.1509 26.9717V37.8112C28.1509 38.1429 28.4197 38.4118 28.7515 38.4118H32.7961C33.1279 38.4118 33.3967 38.1429 33.3967 37.8112V26.9717C33.3967 26.64 33.1279 26.3711 32.7961 26.3711ZM32.1955 37.2106H29.3521V27.5723H32.1955V37.2106Z" fill="#5FB34E"/>
<path d="M26.0012 33.1655H21.9565C21.6248 33.1655 21.356 33.4344 21.356 33.7661V37.8107C21.356 38.1424 21.6248 38.4113 21.9565 38.4113H26.0012C26.333 38.4113 26.6018 38.1424 26.6018 37.8107V33.7661C26.6018 33.4343 26.333 33.1655 26.0012 33.1655ZM25.4006 37.2101H22.5571V34.3667H25.4006V37.2101Z" fill="#5FB34E"/>
<path d="M7.604 37.8107C7.604 38.1424 7.87291 38.4113 8.20459 38.4113H12.2492C12.5809 38.4113 12.8498 38.1424 12.8498 37.8107V33.7661C12.8498 33.4344 12.5809 33.1655 12.2492 33.1655H8.20459C7.87291 33.1655 7.604 33.4344 7.604 33.7661V37.8107ZM8.80518 34.3667H11.6486V37.2101H8.80518V34.3667Z" fill="#5FB34E"/>
<path d="M19.0441 33.1655H14.9995C14.6678 33.1655 14.3989 33.4344 14.3989 33.7661V37.8107C14.3989 38.1424 14.6678 38.4113 14.9995 38.4113H19.0441C19.3758 38.4113 19.6447 38.1424 19.6447 37.8107V33.7661C19.6447 33.4343 19.3758 33.1655 19.0441 33.1655ZM18.4435 37.2101H15.6001V34.3667H18.4435V37.2101Z" fill="#5FB34E"/>
</svg>
