<svg width="48" height="48" viewBox="0 0 48 48" fill="none" xmlns="http://www.w3.org/2000/svg">
<g clip-path="url(#clip0)">
<path d="M19.5499 43.5268L16.8296 46.247C16.3751 46.7016 15.6166 46.7017 15.1621 46.247L1.75331 32.8382C1.29356 32.3785 1.29356 31.6303 1.75331 31.1707L15.7214 17.2027C15.9966 16.9274 15.9966 16.4815 15.7214 16.2062C15.4463 15.9313 15.0003 15.9313 14.725 16.2062L0.756844 30.1742C-0.252281 31.1833 -0.252281 32.8255 0.756844 33.8346L14.1656 47.2434C14.6703 47.7479 15.333 48.0002 15.9958 48.0002C16.6586 48.0002 17.3213 47.7479 17.826 47.2434L20.5463 44.5231C20.8213 44.2479 20.8213 43.8019 20.5463 43.5267C20.2711 43.2518 19.825 43.2518 19.5499 43.5268Z" fill="#5FB34E"/>
<path d="M33.8856 29.1906L21.5426 41.5335C21.2861 41.7901 21.2691 42.2137 21.5052 42.4895C21.7686 42.7973 22.2525 42.8163 22.5391 42.5299L34.882 30.187C35.1572 29.9117 35.1572 29.4658 34.882 29.1906C34.6068 28.9156 34.1607 28.9156 33.8856 29.1906Z" fill="#5FB34E"/>
<path d="M47.1858 0.814147C46.2028 -0.168635 44.5222 -0.264916 42.4529 0.543022C40.5714 1.27755 38.5276 2.6898 36.6977 4.51962C35.7081 5.50933 34.842 6.56158 34.1378 7.61693L26.0114 7.21221C24.6238 7.14312 23.2639 7.66699 22.2811 8.64968L16.7176 14.2132C16.4424 14.4884 16.4424 14.9344 16.7176 15.2096C16.9928 15.4847 17.4388 15.4847 17.714 15.2096L23.2775 9.64615C23.9793 8.94433 24.9508 8.57065 25.9414 8.61949L33.3173 8.9868C33.087 9.42143 32.8861 9.8523 32.7212 10.2748C32.4851 10.8796 32.3286 11.4499 32.2464 11.9805C31.9758 12.1134 31.7219 12.2913 31.4971 12.516C30.9647 13.0485 30.6713 13.7564 30.6713 14.5094C30.6713 15.2625 30.9646 15.9704 31.4971 16.5028C32.0467 17.0523 32.7686 17.3272 33.4905 17.3272C34.2124 17.3272 34.9343 17.0524 35.4838 16.5028C36.0163 15.9704 36.3095 15.2625 36.3095 14.5094C36.3095 13.7565 36.0163 13.0485 35.4838 12.516C34.9971 12.0294 34.375 11.7586 33.7376 11.703C33.8106 11.4141 33.9082 11.1086 34.0337 10.7872C34.2523 10.2272 34.5407 9.64896 34.8879 9.06499L36.9932 9.1698C37.9906 9.21949 38.7804 10.0092 38.8301 11.0066L38.9562 13.5392C38.9562 13.54 38.9563 13.5406 38.9563 13.5414L39.3804 22.0586C39.4298 23.0498 39.0557 24.0206 38.3539 24.7224L35.8782 27.198C35.6217 27.4546 35.6047 27.8782 35.8408 28.154C36.1043 28.4618 36.5881 28.4808 36.8747 28.1944L39.3503 25.7187C40.3329 24.7361 40.8569 23.3765 40.7877 21.9885L40.383 13.8613C41.4512 13.1494 42.4917 12.2908 43.4804 11.3022C45.3102 9.47233 46.7225 7.4284 47.457 5.54693C48.2648 3.47777 48.1685 1.79702 47.1858 0.814147ZM32.4934 15.5066C32.227 15.2403 32.0804 14.8862 32.0804 14.5096C32.0804 14.2402 32.1567 13.9827 32.2971 13.7602C32.4248 14.2493 32.655 14.6705 32.9923 15.0077C33.3244 15.34 33.7462 15.5742 34.2381 15.7038C33.6938 16.0445 32.9663 15.9795 32.4934 15.5066ZM34.4874 13.5126C34.7267 13.7517 34.8683 14.062 34.8949 14.3954C34.5066 14.3521 34.2017 14.2245 33.9887 14.0113C33.7741 13.7967 33.646 13.4885 33.6021 13.1056C33.925 13.1311 34.2409 13.2661 34.4874 13.5126ZM42.4839 10.306C41.7902 10.9998 41.049 11.6387 40.2999 12.1953L40.2373 10.9367C40.1514 9.21311 38.7869 7.84858 37.0633 7.76262L35.8015 7.6998C36.3529 6.95786 36.9887 6.22155 37.6943 5.51608C41.2895 1.92087 45.0569 0.678209 46.1895 1.81052C47.3222 2.9434 46.079 6.71102 42.4839 10.306Z" fill="#5FB34E"/>
<path d="M25.6131 17.9832C25.3379 17.7081 24.8918 17.708 24.6168 17.9831L22.8074 19.7925C22.8071 19.7928 22.8067 19.793 22.8065 19.7933C22.5313 20.0686 22.5313 20.5145 22.8065 20.7898L27.3132 25.2965C27.5856 25.569 28.0387 25.5725 28.3122 25.2991L30.1224 23.4889C30.3976 23.2136 30.3976 22.7676 30.1224 22.4924C29.8472 22.2174 29.4012 22.2174 29.126 22.4924L27.8139 23.8044L26.5557 22.5462L27.8677 21.2343C28.1429 20.959 28.1429 20.513 27.8677 20.2378C27.5925 19.9627 27.1465 19.9627 26.8713 20.2378L25.5593 21.5498L24.301 20.2915L25.6131 18.9796C25.8882 18.7044 25.8882 18.2584 25.6131 17.9832Z" fill="#5FB34E"/>
<path d="M18.9549 23.6501C18.6797 23.9253 18.6797 24.3713 18.9549 24.6465L23.4617 29.1532C23.7332 29.4245 24.1865 29.4245 24.458 29.1532L26.5641 27.0472C26.8393 26.7719 26.8393 26.326 26.5641 26.0507C26.289 25.7758 25.8429 25.7758 25.5677 26.0507L23.9598 27.6586L19.9513 23.6501C19.6761 23.3751 19.2302 23.3751 18.9549 23.6501Z" fill="#5FB34E"/>
<path d="M15.5022 26.8783C15.1047 27.2758 15.0232 27.8718 15.2994 28.3616L18.4324 33.9149C18.6359 34.2756 19.1221 34.3824 19.4585 34.14C19.746 33.933 19.8335 33.5308 19.6597 33.2226L18.8462 31.7807L20.4046 30.2225L21.8463 31.036C22.1855 31.2273 22.6151 31.1074 22.8061 30.7685C22.9973 30.4295 22.8776 29.9999 22.5388 29.8087L16.9852 26.6756C16.4956 26.3994 15.8996 26.481 15.5022 26.8783ZM18.1275 30.5067L16.8289 28.2051L19.1306 29.5036L18.1275 30.5067Z" fill="#5FB34E"/>
<path d="M15.5592 36.0613C14.9374 36.6115 14.4314 36.4325 14.3181 36.3812C13.9582 36.1845 13.4937 36.3453 13.3315 36.7207C13.1718 37.0907 13.3639 37.5312 13.7436 37.6662C13.9225 37.744 14.2599 37.8592 14.6892 37.8592C15.2365 37.8592 15.7608 37.6631 16.2036 37.3472C16.6975 36.9949 17.1249 36.509 17.3284 35.9308C17.4039 35.716 17.4478 35.4899 17.4548 35.2622C17.4739 34.6311 17.2062 33.9752 16.7387 33.5076C16.3559 33.1247 15.89 32.8973 15.3913 32.8501C14.7228 32.7867 14.0271 33.0407 13.3226 33.6051C12.666 34.1312 12.273 33.915 12.097 33.7389C11.9932 33.6351 11.5055 33.0874 12.097 32.4959C12.519 32.0739 12.9559 32.1961 13.0042 32.2114C13.1974 32.2471 13.3828 32.2385 13.5563 32.1329C13.7125 32.0377 13.8282 31.8825 13.8737 31.7051C13.9742 31.3127 13.7114 30.9053 13.3137 30.8346C12.7884 30.7036 11.873 30.7271 11.1006 31.4995C9.9136 32.6866 10.4502 34.0849 11.1006 34.7354C11.7296 35.3642 12.9195 35.7335 14.2036 34.7048C15.1694 33.9309 15.5856 34.3472 15.7423 34.504C15.9477 34.7093 16.0809 35.0132 16.0388 35.3059C15.995 35.6104 15.7822 35.864 15.5592 36.0613Z" fill="#5FB34E"/>
</g>
<defs>
<clipPath id="clip0">
<rect width="48" height="48" fill="white"/>
</clipPath>
</defs>
</svg>
