<svg width="45" height="45" viewBox="0 0 45 45" fill="none" xmlns="http://www.w3.org/2000/svg">
<g clip-path="url(#clip0)">
<path d="M43.2382 25.7852C43.2899 25.4563 43.6302 25.0331 43.9594 24.624C44.4471 24.0174 45 23.33 45 22.5C45 21.67 44.4471 20.9826 43.9593 20.376C43.6301 19.9668 43.2898 19.5436 43.2381 19.2148C43.1832 18.8652 43.381 18.3453 43.5721 17.8426C43.8447 17.126 44.1536 16.3137 43.9042 15.5455C43.65 14.7626 42.9144 14.2822 42.2654 13.8584C41.8223 13.5691 41.3641 13.2699 41.2098 12.9676C41.0516 12.6577 41.0781 12.1055 41.1036 11.5716C41.1405 10.8026 41.1824 9.9312 40.7038 9.2736C40.223 8.61284 39.3785 8.38398 38.6335 8.18209C38.1197 8.04287 37.5884 7.89882 37.3452 7.65562C37.1019 7.41234 36.9579 6.88104 36.8187 6.36715C36.6168 5.6221 36.388 4.77765 35.7272 4.2968C35.0696 3.81814 34.1982 3.85989 33.4292 3.89681C32.8954 3.92238 32.3431 3.94884 32.0332 3.79063C31.7309 3.6363 31.4316 3.17804 31.1423 2.73498C30.7184 2.08591 30.238 1.35026 29.4551 1.09608C28.6869 0.846563 27.8745 1.1555 27.1578 1.42796C26.6549 1.61912 26.1349 1.81679 25.7853 1.76186C25.4564 1.71018 25.0333 1.36986 24.6241 1.0408C24.0174 0.55292 23.33 0 22.5 0C21.67 0 20.9826 0.55292 20.376 1.04062C19.9668 1.36978 19.5436 1.71009 19.2147 1.76177C18.8654 1.8167 18.3452 1.61903 17.8425 1.42778C17.126 1.15523 16.3136 0.846299 15.5454 1.09582C14.7626 1.35 14.2822 2.08556 13.8584 2.73463C13.5691 3.17777 13.2698 3.63586 12.9675 3.79028C12.6576 3.94849 12.1054 3.92203 11.5715 3.89637C10.8025 3.85954 9.93111 3.81771 9.27352 4.29627C8.61275 4.77712 8.38389 5.62157 8.182 6.36662C8.04278 6.88043 7.89873 7.41173 7.65545 7.65492C7.41217 7.89812 6.88087 8.04217 6.36706 8.18139C5.62201 8.38336 4.77756 8.61214 4.29671 9.2729C3.81814 9.9305 3.8598 10.802 3.89672 11.5709C3.92229 12.1048 3.94875 12.657 3.79055 12.9669C3.63621 13.2692 3.17795 13.5685 2.73489 13.8579C2.08582 14.2817 1.35026 14.7622 1.096 15.545C0.846475 16.3133 1.15532 17.1256 1.42787 17.8424C1.61903 18.3452 1.81679 18.8652 1.76177 19.2149C1.71009 19.5438 1.36978 19.967 1.04062 20.3761C0.55292 20.9826 0 21.67 0 22.5C0 23.33 0.55292 24.0174 1.04071 24.624C1.36986 25.0332 1.71018 25.4564 1.76186 25.7852C1.81679 26.1348 1.61903 26.6547 1.42787 27.1574C1.15532 27.874 0.846387 28.6863 1.09582 29.4545C1.35 30.2374 2.08556 30.7178 2.73463 31.1416C3.17769 31.4309 3.63586 31.7301 3.7902 32.0324C3.9484 32.3423 3.92194 32.8945 3.89637 33.4284C3.85945 34.1974 3.81762 35.0688 4.29618 35.7264C4.77703 36.3872 5.62148 36.616 6.36653 36.8179C6.88034 36.9571 7.41164 37.1012 7.65483 37.3444C7.89812 37.5877 8.04208 38.119 8.1813 38.6329C8.38318 39.3779 8.61205 40.2224 9.27281 40.7032C9.93041 41.1818 10.8018 41.1401 11.5708 41.1032C12.1047 41.0776 12.6569 41.0513 12.9668 41.2094C13.2691 41.3637 13.5684 41.822 13.8577 42.265C14.2816 42.9141 14.762 43.6497 15.5449 43.9039C16.313 44.1534 17.1255 43.8445 17.8422 43.572C18.3451 43.3809 18.8649 43.1831 19.2147 43.2381C19.5436 43.2898 19.9667 43.6301 20.3759 43.9592C20.9826 44.4471 21.67 45 22.5 45C23.33 45 24.0174 44.4471 24.624 43.9594C25.0332 43.6302 25.4564 43.2899 25.7853 43.2382C26.1345 43.1832 26.6547 43.381 27.1575 43.5722C27.8741 43.8448 28.6864 44.1537 29.4546 43.9042C30.2374 43.65 30.7178 42.9144 31.1416 42.2654C31.4309 41.8222 31.7302 41.3641 32.0325 41.2097C32.3425 41.0515 32.8946 41.078 33.4285 41.1036C34.1974 41.1405 35.0689 41.1823 35.7265 40.7037C36.3872 40.2229 36.6161 39.3784 36.818 38.6334C36.9572 38.1196 37.1013 37.5883 37.3446 37.3451C37.5878 37.1019 38.1191 36.9578 38.6329 36.8186C39.378 36.6166 40.2224 36.3879 40.7033 35.7271C41.1819 35.0695 41.1402 34.198 41.1033 33.4291C41.0777 32.8952 41.0513 32.343 41.2095 32.0331C41.3638 31.7308 41.8221 31.4315 42.2651 31.1421C42.9142 30.7183 43.6497 30.2378 43.904 29.455C44.1535 28.6867 43.8447 27.8744 43.5721 27.1576C43.381 26.6549 43.1833 26.1349 43.2382 25.7852ZM42.3398 27.6262C42.5445 28.1646 42.7562 28.7213 42.6501 29.0479C42.5395 29.3884 42.0335 29.7188 41.5442 30.0384C40.9567 30.4221 40.3492 30.8188 40.0352 31.4336C39.7175 32.0559 39.7525 32.7861 39.7863 33.4922C39.814 34.0708 39.8428 34.6691 39.6373 34.9514C39.4295 35.2368 38.8491 35.3941 38.288 35.5462C37.6075 35.7306 36.9039 35.9213 36.4122 36.4129C35.9205 36.9045 35.7298 37.6081 35.5454 38.2886C35.3934 38.8498 35.2361 39.4301 34.9506 39.6378C34.6683 39.8432 34.0701 39.8145 33.4915 39.7868C32.7853 39.7529 32.0552 39.7179 31.4329 40.0356C30.8181 40.3494 30.4213 40.9569 30.0377 41.5445C29.7182 42.0338 29.3877 42.5397 29.0473 42.6502C28.7209 42.7562 28.1643 42.5446 27.626 42.3399C26.9624 42.0875 26.276 41.8265 25.5806 41.9358C24.9042 42.042 24.3417 42.4944 23.7977 42.9319C23.3394 43.3005 22.8656 43.6816 22.5 43.6816C22.1344 43.6816 21.6606 43.3005 21.2023 42.932C20.6583 42.4945 20.0958 42.0421 19.4195 41.9359C19.3076 41.9183 19.196 41.9103 19.0847 41.9103C18.5037 41.9103 17.9307 42.1282 17.3738 42.3399C16.8354 42.5446 16.2787 42.7563 15.9521 42.6502C15.6117 42.5396 15.2812 42.0336 14.9616 41.5443C14.5779 40.9568 14.1812 40.3492 13.5664 40.0353C12.9441 39.7177 12.214 39.7526 11.5078 39.7864C10.9292 39.8141 10.3309 39.8428 10.0486 39.6374C9.76315 39.4296 9.60583 38.8492 9.45378 38.2881C9.2693 37.6075 9.07866 36.9039 8.58709 36.4123C8.09552 35.9206 7.39187 35.73 6.71142 35.5455C6.15023 35.3935 5.56998 35.2361 5.36221 34.9507C5.15681 34.6684 5.18546 34.0701 5.21323 33.4916C5.24707 32.7855 5.28214 32.0553 4.96441 31.433C4.65056 30.8181 4.04306 30.4215 3.45551 30.0378C2.96622 29.7183 2.46032 29.3878 2.34976 29.0474C2.24376 28.7209 2.4554 28.1643 2.6601 27.6261C2.91252 26.9625 3.17355 26.2762 3.06422 25.5806C2.95796 24.9042 2.50559 24.3417 2.06807 23.7978C1.69945 23.3395 1.31836 22.8656 1.31836 22.5C1.31836 22.1344 1.69945 21.6606 2.06798 21.2023C2.5055 20.6583 2.95787 20.0958 3.06413 19.4194C3.17347 18.7238 2.91243 18.0374 2.6601 17.3737C2.4554 16.8354 2.24376 16.2787 2.34984 15.952C2.46041 15.6115 2.9664 15.2811 3.45568 14.9615C4.04323 14.5778 4.65073 14.1812 4.96468 13.5663C5.2824 12.944 5.24742 12.2138 5.21358 11.5077C5.1859 10.9291 5.15716 10.3308 5.36265 10.0485C5.57042 9.76307 6.15076 9.60583 6.71194 9.45369C7.39239 9.2693 8.09604 9.07857 8.5877 8.587C9.07936 8.09543 9.27009 7.39178 9.45448 6.71133C9.60653 6.15015 9.76386 5.5698 10.0493 5.36212C10.3316 5.15672 10.9297 5.18537 11.5084 5.21314C12.2146 5.24707 12.9447 5.28196 13.567 4.96433C14.1819 4.65047 14.5786 4.04297 14.9622 3.45542C15.2817 2.96613 15.6122 2.46023 15.9526 2.34967C16.2789 2.24367 16.8356 2.45531 17.3739 2.66001C18.0375 2.91243 18.724 3.17338 19.4193 3.06413C20.0957 2.95787 20.6583 2.5055 21.2022 2.06798C21.6606 1.69945 22.1344 1.31836 22.5 1.31836C22.8656 1.31836 23.3394 1.69945 23.7977 2.06798C24.3417 2.5055 24.9042 2.95787 25.5805 3.06413C26.2763 3.17338 26.9625 2.91243 27.6262 2.6601C28.1646 2.4554 28.7213 2.24376 29.0479 2.34984C29.3883 2.46041 29.7188 2.9664 30.0384 3.45568C30.4221 4.04323 30.8188 4.65082 31.4336 4.96468C32.0559 5.28231 32.786 5.24742 33.4922 5.21358C34.0709 5.1859 34.6691 5.15716 34.9514 5.36265C35.2368 5.57042 35.3942 6.15076 35.5462 6.71194C35.7307 7.39248 35.9213 8.09613 36.4129 8.5877C36.9045 9.07936 37.6081 9.27 38.2886 9.45448C38.8498 9.60653 39.43 9.76386 39.6378 10.0493C39.8432 10.3316 39.8145 10.9299 39.7868 11.5084C39.7529 12.2145 39.7179 12.9447 40.0356 13.567C40.3494 14.1819 40.9569 14.5785 41.5445 14.9622C42.0338 15.2817 42.5397 15.6122 42.6502 15.9527C42.7562 16.2792 42.5446 16.8357 42.3399 17.3739C42.0875 18.0375 41.8264 18.7238 41.9358 19.4194C42.042 20.0958 42.4944 20.6583 42.9319 21.2022C43.3005 21.6605 43.6816 22.1344 43.6816 22.5C43.6816 22.8656 43.3005 23.3394 42.932 23.7977C42.4945 24.3417 42.0421 24.9042 41.9359 25.5806C41.8265 26.2761 42.0875 26.9625 42.3398 27.6262Z" fill="#5FB34E" stroke="#5FB34E" stroke-width="0.2"/>
<path d="M32.4916 34.4048C29.5258 36.8998 25.7518 38.1877 21.8649 38.0309C17.955 37.8734 14.2766 36.2616 11.5076 33.4926C8.73866 30.7236 7.12692 27.0453 6.96933 23.1354C6.81271 19.2484 8.10048 15.4745 10.5954 12.5088C10.8298 12.2302 10.794 11.8143 10.5154 11.58C10.2368 11.3457 9.82094 11.3816 9.58662 11.6601C6.8795 14.878 5.48222 18.9722 5.65202 23.1885C5.82297 27.4305 7.57138 31.421 10.5754 34.4249C13.5793 37.4289 17.5699 39.1774 21.8118 39.3484C22.0416 39.3576 22.2703 39.3623 22.4993 39.3622C26.4711 39.362 30.2977 37.9733 33.3403 35.4138C33.6189 35.1794 33.6548 34.7636 33.4204 34.485C33.186 34.2064 32.7702 34.1705 32.4916 34.4048Z" fill="#5FB34E" stroke="#5FB34E" stroke-width="0.2"/>
<path d="M34.4242 10.5755C31.4202 7.57148 27.4297 5.82298 23.1879 5.65204C18.971 5.48214 14.8773 6.87952 11.6594 9.58664C11.3808 9.82095 11.345 10.2368 11.5794 10.5154C11.8137 10.7939 12.2295 10.8298 12.5081 10.5954C15.4739 8.10049 19.2481 6.81307 23.1348 6.96934C27.0447 7.12684 30.723 8.73858 33.4921 11.5077C36.2611 14.2767 37.8728 17.9549 38.0304 21.8649C38.187 25.7519 36.8992 29.5259 34.4043 32.4916C34.1699 32.7702 34.2057 33.186 34.4844 33.4203C34.6079 33.5243 34.7586 33.5751 34.9083 33.5751C35.0962 33.5751 35.2828 33.4952 35.4131 33.3402C38.1202 30.1223 39.5175 26.0281 39.3477 21.8118C39.1768 17.5699 37.4283 13.5794 34.4242 10.5755Z" fill="#5FB34E" stroke="#5FB34E" stroke-width="0.2"/>
<path d="M26.3148 13.4988C25.979 13.3579 25.5928 13.5158 25.4519 13.8516L18.5552 30.285C18.4143 30.6207 18.5722 31.0071 18.9079 31.148C18.9912 31.1829 19.0777 31.1995 19.1627 31.1995C19.4203 31.1995 19.6649 31.0475 19.7708 30.7952L26.6675 14.3617C26.8084 14.0261 26.6505 13.6397 26.3148 13.4988Z" fill="#5FB34E" stroke="#5FB34E" stroke-width="0.2"/>
<path d="M17.8428 12.6816C15.7989 12.6816 14.1362 14.5659 14.1362 16.882C14.1362 19.1981 15.7989 21.0823 17.8428 21.0823C19.8865 21.0823 21.5493 19.1981 21.5493 16.882C21.5493 14.5659 19.8865 12.6816 17.8428 12.6816ZM17.8428 19.764C16.5259 19.764 15.4546 18.4711 15.4546 16.882C15.4546 15.2929 16.5259 14 17.8428 14C19.1595 14 20.2309 15.2929 20.2309 16.882C20.2309 18.4711 19.1595 19.764 17.8428 19.764Z" fill="#5FB34E" stroke="#5FB34E" stroke-width="0.2"/>
<path d="M23.4507 28.1178C23.4507 30.4339 25.1134 32.3182 27.1572 32.3182C29.201 32.3182 30.8637 30.4339 30.8637 28.1178C30.8637 25.8017 29.201 23.9175 27.1572 23.9175C25.1135 23.9175 23.4507 25.8017 23.4507 28.1178ZM27.1572 25.2358C28.4741 25.2358 29.5454 26.5286 29.5454 28.1178C29.5454 29.7069 28.4741 30.9998 27.1572 30.9998C25.8404 30.9998 24.769 29.7069 24.769 28.1178C24.769 26.5286 25.8404 25.2358 27.1572 25.2358Z" fill="#5FB34E" stroke="#5FB34E" stroke-width="0.2"/>
</g>
<defs>
<clipPath id="clip0">
<rect width="45" height="45" fill="white"/>
</clipPath>
</defs>
</svg>
