<svg width="60" height="60" viewBox="0 0 60 60" fill="none" xmlns="http://www.w3.org/2000/svg">
<circle cx="30" cy="30" r="30" fill="#21222F"/>
<path d="M40.9422 16.1562H19.1911C16.9169 16.1562 15.0667 18.0062 15.0667 20.2807V33.5919C15.0667 35.8613 16.9089 37.7083 19.1765 37.7164V43.7568L27.8573 37.7164H40.9422C43.2164 37.7164 45.0666 35.8661 45.0666 33.5919V20.2807C45.0666 18.0062 43.2164 16.1562 40.9422 16.1562ZM43.3088 33.5919C43.3088 34.8967 42.2472 35.9586 40.9422 35.9586H27.3058L20.9343 40.3923V35.9586H19.1911C17.8861 35.9586 16.8245 34.8967 16.8245 33.5919V20.2807C16.8245 18.9755 17.8861 17.9141 19.1911 17.9141H40.9422C42.2472 17.9141 43.3088 18.9755 43.3088 20.2807V33.5919Z" fill="#5FB34E"/>
<rect x="24.6666" y="25.7334" width="2.13333" height="2.13333" fill="#5FB34E"/>
<rect x="28.9332" y="25.7334" width="2.13334" height="2.13333" fill="#5FB34E"/>
<rect x="33.2" y="25.7334" width="2.13333" height="2.13333" fill="#5FB34E"/>
</svg>
