<svg width="60" height="60" viewBox="0 0 60 60" fill="none" xmlns="http://www.w3.org/2000/svg">
<circle cx="30" cy="30" r="30" fill="#21222F"/>
<path fill-rule="evenodd" clip-rule="evenodd" d="M39.0335 42.665V17.3289C39.0335 16.048 37.9917 15 36.7046 15H23.295C22.0141 15 20.9661 16.0419 20.9661 17.3289V42.6711C20.9661 43.952 22.008 45 23.295 45H36.7046C37.9855 44.9939 39.0335 43.952 39.0335 42.665ZM22.4677 20.3994H37.5259V37.4494H22.4677V20.3994ZM28.474 40.5321H31.52C31.9367 40.5321 32.2738 40.8692 32.2738 41.286C32.2738 41.7027 31.9367 42.0398 31.52 42.0398H28.474C28.0573 42.0398 27.7202 41.7027 27.7202 41.286C27.7202 40.8692 28.0573 40.5321 28.474 40.5321Z" fill="white"/>
</svg>
