<svg width="60" height="60" viewBox="0 0 60 60" fill="none" xmlns="http://www.w3.org/2000/svg">
<circle cx="30" cy="30" r="30" fill="#935BBE"/>
<path d="M30.278 18C29.5535 18 29.5535 19.1292 30.278 19.1386C35.8994 19.1819 40.529 23.1001 40.5799 30.2873C40.5799 31.0457 41.6902 31.0363 41.6808 30.2779H41.6789C41.6187 22.5336 36.5638 18.0433 30.278 18Z" fill="white"/>
<path d="M37.6722 29.0961C37.6553 29.8451 38.7638 29.8809 38.7732 29.1224C38.8654 24.8523 36.2325 21.3349 31.2849 20.9642C30.5603 20.9115 30.485 22.0501 31.2077 22.1028C35.4986 22.4283 37.7588 25.3567 37.6722 29.0961Z" fill="white"/>
<path d="M36.4866 33.9531C35.5569 33.4148 34.6103 33.7498 34.2188 34.2787L33.4002 35.3382C32.9843 35.8764 32.207 35.8049 32.207 35.8049C26.5348 34.305 25.018 28.3693 25.018 28.3693C25.018 28.3693 24.9483 27.5657 25.4678 27.1348L26.4915 26.2879C27.0034 25.8814 27.3271 24.9028 26.8058 23.9411C25.4132 21.4249 24.4778 20.5573 24.0017 19.8911C23.5011 19.2644 22.7483 19.1233 21.9654 19.5467H21.9485C20.3206 20.499 18.5384 22.2812 19.1086 24.1161C20.0816 26.0508 21.8695 32.2179 27.568 36.8776C30.246 39.0814 34.4842 41.3398 36.2833 41.8611L36.3003 41.8874C38.0731 42.4783 39.797 40.6265 40.7172 38.9497V38.9365C41.1256 38.1254 40.9901 37.3575 40.3935 36.8551C39.3359 35.8237 37.74 34.6852 36.4866 33.9531Z" fill="white"/>
<path d="M32.0603 25.1647C33.8688 25.2701 34.7458 26.2148 34.8399 28.1551C34.8738 28.9135 35.9747 28.8608 35.9409 28.1024C35.8204 25.5693 34.4993 24.1578 32.1205 24.0261C31.3959 23.9828 31.3282 25.1214 32.0603 25.1647Z" fill="white"/>
</svg>
