<svg width="60" height="60" viewBox="0 0 60 60" fill="none" xmlns="http://www.w3.org/2000/svg">
<circle cx="30" cy="30" r="30" fill="#5FB34E"/>
<path d="M40.7909 19.2091C38.0766 16.4948 34.4677 15 30.6291 15C26.7905 15 23.1816 16.4948 20.4673 19.2091C17.7529 21.9235 16.2582 25.5323 16.2582 29.3709C16.2582 31.8025 16.8737 34.1919 18.0421 36.3085L15 45L23.6914 41.958C25.808 43.1262 28.1975 43.7418 30.6291 43.7418C34.4677 43.7418 38.0766 42.247 40.7908 39.5327C43.5052 36.8184 45 33.2095 45 29.3709C45 25.5322 43.5052 21.9234 40.7909 19.2091ZM30.6291 41.9821C28.3734 41.9821 26.1595 41.3788 24.2268 40.2374L23.8747 40.0295L17.8683 42.1317L19.9705 36.1253L19.7626 35.7732C18.6212 33.8405 18.0179 31.6266 18.0179 29.3709C18.0179 22.4171 23.6753 16.7597 30.6291 16.7597C37.5829 16.7597 43.2403 22.4171 43.2403 29.3709C43.2403 36.3248 37.5829 41.9821 30.6291 41.9821Z" fill="white"/>
<path d="M35.1523 31.6818C34.5594 31.326 33.9556 31.5474 33.706 31.897L33.1839 32.5972C32.9186 32.953 32.4229 32.9057 32.4229 32.9057C28.8054 31.9144 27.838 27.9913 27.838 27.9913C27.838 27.9913 27.7936 27.4602 28.1249 27.1754L28.7778 26.6157C29.1043 26.347 29.3107 25.7002 28.9783 25.0646C28.0901 23.4016 27.4936 22.8282 27.1899 22.3879C26.8706 21.9737 26.3905 21.8804 25.8912 22.1603H25.8804C24.8422 22.7897 23.7056 23.9676 24.0693 25.1803C24.6898 26.4589 25.83 30.535 29.4643 33.6147C31.1723 35.0712 33.8752 36.5638 35.0226 36.9083L35.0334 36.9257C36.1641 37.3163 37.2635 36.0924 37.8504 34.9841V34.9754C38.1109 34.4393 38.0244 33.9318 37.644 33.5997C36.9694 32.9181 35.9516 32.1656 35.1523 31.6818Z" fill="white"/>
</svg>
