<svg width="250" height="250" viewBox="0 0 250 250" fill="none" xmlns="http://www.w3.org/2000/svg">
<rect width="250" height="250" fill="#21222F"/>
<path d="M147.425 21.269C101.525 46.7738 107.041 118.643 107.041 118.643C107.041 118.643 86.8497 112.151 86.8497 82.9421C62.7573 96.41 46.4663 122.307 46.4663 151.101C46.4663 194.124 82.6259 229 127.233 229C171.84 229 208 194.124 208 151.101C208 87.8064 147.425 74.8233 147.425 21.269ZM134.329 202.157C118.097 206.063 101.657 196.536 97.6127 180.881C93.5684 165.227 103.446 149.37 119.671 145.469C158.858 136.046 163.77 114.794 163.77 114.794C163.77 114.794 183.309 190.379 134.329 202.157Z" fill="#E8E8E8"/>
<path d="M132.807 212.845C111.897 217.696 90.7196 205.846 85.5132 186.369C80.2949 166.892 93.0185 147.166 113.928 142.31C164.409 130.588 170.738 104.146 170.738 104.146C170.738 104.146 195.904 198.184 132.807 212.845Z" fill="#21222F"/>
</svg>
