<svg width="43" height="38" viewBox="0 0 43 38" fill="none" xmlns="http://www.w3.org/2000/svg">
<path d="M18.8443 0.53125H2.74432C1.23107 0.53125 0 1.76232 0 3.27557V35.256C0 36.7693 1.23107 38.0004 2.74432 38.0004H18.8443C20.3576 38.0004 21.5887 36.7693 21.5887 35.256V3.27557C21.5887 1.76232 20.3576 0.53125 18.8443 0.53125ZM20.4909 30.3163H4.93978C4.63666 30.3163 4.39091 30.562 4.39091 30.8651C4.39091 31.1683 4.63666 31.414 4.93978 31.414H20.4909V35.256C20.4909 36.164 19.7523 36.9026 18.8443 36.9026H2.74432C1.83635 36.9026 1.09773 36.164 1.09773 35.256V31.414H2.74432C3.04744 31.414 3.29318 31.1683 3.29318 30.8651C3.29318 30.562 3.04744 30.3163 2.74432 30.3163H1.09773V6.01989H20.4909V30.3163ZM20.4909 4.92216H1.09773V3.27557C1.09773 2.3676 1.83635 1.62898 2.74432 1.62898H18.8443C19.7523 1.62898 20.4909 2.3676 20.4909 3.27557V4.92216Z" fill="#5FB34E"/>
<path d="M12.9899 2.72656H10.7945C10.4914 2.72656 10.2456 2.97231 10.2456 3.27543C10.2456 3.57855 10.4914 3.82429 10.7945 3.82429H12.9899C13.293 3.82429 13.5388 3.57855 13.5388 3.27543C13.5388 2.97231 13.293 2.72656 12.9899 2.72656Z" fill="#5FB34E"/>
<path d="M10.7941 32.5117C9.88609 32.5117 9.14746 33.2503 9.14746 34.1583C9.14746 35.0663 9.88609 35.8049 10.7941 35.8049C11.702 35.8049 12.4406 35.0663 12.4406 34.1583C12.4406 33.2503 11.702 32.5117 10.7941 32.5117ZM10.7941 34.7072C10.4914 34.7072 10.2452 34.461 10.2452 34.1583C10.2452 33.8556 10.4914 33.6094 10.7941 33.6094C11.0967 33.6094 11.3429 33.8556 11.3429 34.1583C11.3429 34.461 11.0967 34.7072 10.7941 34.7072Z" fill="#5FB34E"/>
<path d="M8.59867 3.82429C8.9018 3.82429 9.14753 3.57856 9.14753 3.27543C9.14753 2.9723 8.9018 2.72656 8.59867 2.72656C8.29554 2.72656 8.0498 2.9723 8.0498 3.27543C8.0498 3.57856 8.29554 3.82429 8.59867 3.82429Z" fill="#5FB34E"/>
<path d="M31.5232 17.7426C31.5235 16.5199 31.0475 15.3703 30.183 14.5058C29.3185 13.6413 28.169 13.1654 26.9462 13.1656C26.6088 13.1657 26.3354 13.4392 26.3355 13.7766C26.3355 14.1139 26.6091 14.3874 26.9464 14.3874C27.8428 14.3871 28.6854 14.7361 29.319 15.3697C29.9527 16.0034 30.3015 16.8461 30.3013 17.7423C30.301 19.5928 28.7951 21.0987 26.9445 21.0991C26.6071 21.0991 26.3336 21.3727 26.3337 21.7101C26.3337 21.8788 26.4021 22.0314 26.5127 22.1419C26.6232 22.2525 26.776 22.3208 26.9448 22.3209C29.4688 22.3203 31.5226 20.2665 31.5232 17.7426Z" fill="#5FB34E"/>
<path d="M34.6203 17.8304C34.6207 15.717 33.7981 13.7302 32.3039 12.2361C30.8099 10.742 28.8231 9.91928 26.7096 9.91974C26.3722 9.91985 26.0988 10.1934 26.0988 10.5307C26.099 10.8681 26.3724 11.1416 26.7099 11.1416C28.4968 11.1411 30.1766 11.8367 31.44 13.1C32.7033 14.3634 33.3989 16.0432 33.3984 17.8301C33.3977 21.5193 30.3958 24.5212 26.7066 24.5219C26.3692 24.522 26.0958 24.7956 26.0959 25.133C26.0958 25.3017 26.1642 25.4543 26.2747 25.5648C26.3853 25.6754 26.5381 25.7438 26.7069 25.7438C31.0693 25.7429 34.6193 22.1929 34.6203 17.8304Z" fill="#5FB34E"/>
<path d="M37.8352 17.8572C37.8358 14.88 36.677 12.0813 34.5723 9.97656C32.4675 7.87179 29.6688 6.71301 26.6916 6.71363C26.3542 6.71373 26.0808 6.98727 26.0809 7.32466C26.0808 7.66195 26.3543 7.93549 26.6918 7.93544C29.3425 7.93487 31.8344 8.96661 33.7082 10.8404C35.5821 12.7143 36.6138 15.2062 36.6132 17.8569C36.612 23.3289 32.1591 27.7819 26.687 27.783C26.3497 27.7831 26.0762 28.0566 26.0763 28.394C26.0764 28.5627 26.1447 28.7153 26.2552 28.8259C26.3658 28.9364 26.5186 29.0048 26.6874 29.0049C32.8331 29.0036 37.8339 24.0028 37.8352 17.8572Z" fill="#5FB34E"/>
</svg>
