<svg width="45" height="45" viewBox="0 0 45 45" fill="none" xmlns="http://www.w3.org/2000/svg">
<path d="M39.5523 18.2142L37.1203 15.5244C37.593 14.7257 37.7617 13.7948 37.5936 12.8727C37.4088 11.8589 36.8402 10.9777 35.9926 10.3914L32.4837 7.96461C32.5058 7.39809 32.4016 6.8291 32.1711 6.29289C31.7641 5.3461 31.0128 4.61447 30.0554 4.2327L22.2956 1.13877C21.3551 0.763792 20.3303 0.773924 19.4101 1.15163C18.71 0.441323 17.7376 0 16.6638 0H8.31C6.1825 0 4.45166 1.73084 4.45166 3.85834V36.9648C4.45166 41.3955 8.05626 45 12.4868 45C14.5032 45 16.3482 44.2533 17.7604 43.0222C17.7807 43.0077 17.8005 42.9924 17.8195 42.9754L32.863 29.4369C33.1342 29.1928 33.1563 28.775 32.9122 28.5037C32.668 28.2324 32.2499 28.2104 31.979 28.4546L31.3593 29.0124L29.3456 26.7853L32.507 22.2141L35.3811 25.3928L34.0734 26.5697C33.8023 26.8138 33.7802 27.2316 34.0243 27.5029C34.1548 27.6479 34.3349 27.7217 34.5156 27.7217C34.6732 27.7217 34.8312 27.6657 34.9576 27.5521L39.278 23.6638C40.0425 22.9726 40.492 22.025 40.5438 20.9958C40.5956 19.9665 40.2435 18.9786 39.5523 18.2142ZM36.2935 13.1097C36.415 13.7763 36.2696 14.4504 35.8841 15.0076L34.0898 17.6021L30.0049 14.7771L32.1675 9.35299L35.2408 11.4785C35.7981 11.8638 36.172 12.4431 36.2935 13.1097ZM30.0126 23.4974L27.2812 21.6084L29.5027 16.0366L33.338 18.6891L30.0126 23.4974ZM25.9354 29.3928L24.5574 28.4398L26.779 22.8679L29.2608 24.5844L25.9354 29.3928ZM26.9525 18.8643L25.0375 18.1007C24.6986 17.9656 24.3142 18.1307 24.179 18.4698C24.0438 18.8088 24.2091 19.1931 24.548 19.3284L26.463 20.0919L24.1931 25.7851L20.5221 24.3214V17.7232L21.9207 18.2808C22.001 18.3128 22.0838 18.3279 22.1652 18.3279C22.4277 18.3279 22.676 18.1704 22.7792 17.9117C22.9144 17.5727 22.7492 17.1883 22.4102 17.0531L20.5221 16.3003V9.70206L29.2225 13.1711L26.9525 18.8643ZM19.2005 14.7401H11.7154C11.3505 14.7401 11.0546 15.036 11.0546 15.4009C11.0546 15.7659 11.3505 16.0617 11.7154 16.0617H19.2005V22.1908H5.77325V16.0617H8.89925C9.26419 16.0617 9.56005 15.7659 9.56005 15.4009C9.56005 15.036 9.26419 14.7401 8.89925 14.7401H5.77325V8.61105H19.2004V14.7401H19.2005ZM5.77325 23.5124H19.2004V29.6415H5.77325V23.5124ZM20.5221 25.7442L23.7036 27.0127L20.5221 34.9921V25.7442ZM24.6398 33.5897L25.3725 34.4001L21.9476 37.4823L24.6398 33.5897ZM21.7842 35.3954L24.0553 29.6992L25.1838 30.4797L21.7842 35.3954ZM21.8062 2.36644L29.5659 5.46037C30.1954 5.7113 30.6893 6.19236 30.9569 6.81483C31.1409 7.24276 31.2027 7.70241 31.1418 8.15237C31.1407 8.15756 31.1402 8.16285 31.1392 8.16805C31.1111 8.36726 31.0591 8.56453 30.9826 8.75616L29.7118 11.9434L20.5221 8.27924V3.85834C20.5221 3.2964 20.4004 2.76257 20.1834 2.28054C20.7137 2.13067 21.2801 2.15666 21.8062 2.36644ZM8.31 1.32159H16.6638C18.0625 1.32159 19.2005 2.45957 19.2005 3.85834V7.28954H5.77325V3.85834C5.77325 2.45957 6.91123 1.32159 8.31 1.32159ZM5.77325 36.9648V30.9631H19.2004V36.9648C19.2004 40.6668 16.1887 43.6784 12.4868 43.6784C8.78498 43.6784 5.77325 40.6667 5.77325 36.9648ZM30.3769 29.8965L26.3549 33.516L25.4119 32.4731L28.5733 27.9019L30.3769 29.8965ZM39.2239 20.9293C39.1899 21.6061 38.8943 22.229 38.3928 22.6825L36.3635 24.5087L33.2792 21.0975L36.3555 16.6493L38.5719 19.1005C39.0264 19.6032 39.258 20.2526 39.2239 20.9293Z" fill="#5FB34E"/>
<path d="M12.3373 33.8203C10.59 33.8203 9.16846 35.2418 9.16846 36.9891C9.16846 38.7365 10.59 40.158 12.3373 40.158C14.0846 40.158 15.5061 38.7365 15.5061 36.9891C15.5061 35.2418 14.0846 33.8203 12.3373 33.8203ZM12.3373 38.8365C11.3187 38.8365 10.49 38.0078 10.49 36.9892C10.49 35.9706 11.3187 35.142 12.3373 35.142C13.3559 35.142 14.1845 35.9706 14.1845 36.9892C14.1845 38.0078 13.3559 38.8365 12.3373 38.8365Z" fill="#5FB34E"/>
</svg>
