<svg width="566" height="136" viewBox="0 0 566 136" fill="none" xmlns="http://www.w3.org/2000/svg">
<g filter="url(#filter0_d)">
<path fill-rule="evenodd" clip-rule="evenodd" d="M262.659 95.3032V97.8071H265.163H285.025C293.366 97.8071 300.34 95.3333 305.23 90.4432C310.12 85.5532 312.624 78.5487 312.624 70.0894V37.2638C312.624 28.8121 310.155 21.805 305.26 16.91C300.365 12.0149 293.356 9.54613 284.906 9.54613H265.163H262.659V12.05V95.3032ZM294.593 27.1357C292.602 25.0638 289.508 23.8306 285.025 23.8306H277.419V83.5226H285.025C289.44 83.5226 292.538 82.2932 294.548 80.2025C296.574 78.0967 297.863 74.7366 297.863 69.7326V37.5017C297.863 32.5503 296.6 29.2227 294.593 27.1357Z" fill="#E8E8E8"/>
<path fill-rule="evenodd" clip-rule="evenodd" d="M353.636 99.3532C361.97 99.3532 368.853 96.4788 373.62 91.0717C378.354 85.706 380.759 78.1268 380.759 69.1379V38.0964C380.759 29.1626 378.351 21.6135 373.618 16.2627C368.85 10.8744 361.97 8 353.636 8C345.303 8 338.396 10.8732 333.598 16.2565C328.835 21.6047 326.394 29.1551 326.394 38.0964V69.1379C326.394 78.1343 328.832 85.7147 333.596 91.0792C338.393 96.4801 345.301 99.3532 353.636 99.3532ZM344.561 81.045C346.464 83.4299 349.364 84.8308 353.636 84.8308C357.837 84.8308 360.708 83.4362 362.601 81.0513C364.569 78.57 365.76 74.6614 365.76 69.1379V38.0964C365.76 32.6379 364.571 28.7595 362.604 26.2919C360.711 23.917 357.838 22.5224 353.636 22.5224C349.364 22.5224 346.461 23.9245 344.558 26.2982C342.58 28.7632 341.392 32.6379 341.392 38.0964V69.1379C341.392 74.6614 342.582 78.5662 344.561 81.045Z" fill="#E8E8E8"/>
<path d="M425.479 68.9001V71.4039H427.983H456.883H459.387V68.9001V60.4558V57.9519H456.883H427.983H425.479V60.4558V68.9001Z" fill="#E8E8E8"/>
<path fill-rule="evenodd" clip-rule="evenodd" d="M236.827 95.8954L237.293 97.8071H239.259H249.488H252.718L251.913 94.6798L230.505 11.4265L230.021 9.54613H228.08H217.495H215.553L215.07 11.4265L193.662 94.6798L192.858 97.8071H196.087H206.315H208.283L208.747 95.8954L212.682 79.7292H232.892L236.827 95.8954ZM229.541 65.6826H216.034L222.07 40.5852C222.315 39.5836 222.555 38.5269 222.787 37.4489C223.02 38.53 223.261 39.5898 223.506 40.594L229.541 65.6826Z" fill="#E8E8E8"/>
<path fill-rule="evenodd" clip-rule="evenodd" d="M173.209 96.5589L173.932 97.8071H175.376H186.437H190.842L188.588 94.0225L170.886 64.3007C175.277 62.4515 178.863 59.4776 181.459 55.4882C184.609 50.647 186.205 44.4612 186.205 37.2638C186.205 28.8571 183.91 21.8563 179.206 16.9475C174.485 12.0237 167.665 9.54613 159.32 9.54613H138.982H136.479V12.05V95.3032V97.8071H138.982H148.735H151.239V95.3032V66.4087H155.735L173.209 96.5589ZM168.269 27.0168C166.435 24.9474 163.58 23.7117 159.32 23.7117H151.239V52.2432H159.201C163.466 52.2432 166.347 50.9236 168.216 48.714C170.145 46.4342 171.326 42.8211 171.326 37.6206C171.326 32.5491 170.152 29.1401 168.269 27.0168Z" fill="#E8E8E8"/>
<path fill-rule="evenodd" clip-rule="evenodd" d="M93.2594 99.3532C101.595 99.3532 108.477 96.4788 113.245 91.0717C117.977 85.706 120.382 78.1268 120.382 69.1379V38.0964C120.382 29.1626 117.976 21.6135 113.243 16.2627C108.475 10.8744 101.594 8 93.2594 8C84.9266 8 78.0197 10.8732 73.2236 16.2565C68.4587 21.6047 66.0175 29.1551 66.0175 38.0964V69.1379C66.0175 78.1343 68.4562 85.7147 73.221 91.0792C78.0172 96.4801 84.9266 99.3532 93.2594 99.3532ZM84.1854 81.045C86.0884 83.4299 88.9891 84.8308 93.2594 84.8308C97.4609 84.8308 100.333 83.4362 102.226 81.0513C104.194 78.57 105.384 74.6614 105.384 69.1379V38.0964C105.384 32.6379 104.196 28.7595 102.228 26.2919C100.337 23.917 97.4622 22.5224 93.2594 22.5224C88.9879 22.5224 86.0859 23.9245 84.1817 26.2982C82.2049 28.7632 81.0156 32.6379 81.0156 38.0964V69.1379C81.0156 74.6614 82.2074 78.5662 84.1854 81.045Z" fill="#E8E8E8"/>
<path d="M44.8899 96.589L45.6198 97.8071H47.0382H58.3369H62.7887L60.4764 94.0025L32.7781 48.4157L57.0624 13.4784L59.7966 9.54613H55.0068H43.2324H41.8953L41.1516 10.6566L22.3602 38.7248L22.3352 38.7624L22.3126 38.8L20.7602 41.3076V12.05V9.54613H18.2564H8.50386H6V12.05V95.3032V97.8071H8.50386H18.2564H20.7602V95.3032V65.8711L23.8229 61.4048L44.8899 96.589Z" fill="#E8E8E8"/>
<path d="M521.568 99H533.432L556 8H544.781L532.658 61.43C530.724 70.14 529.177 77.94 527.758 85.09H527.242C525.695 77.94 524.276 70.14 522.342 61.43L510.091 8H499L521.568 99Z" fill="#5FB34E" stroke="#5FB34E" stroke-width="2"/>
</g>
<g filter="url(#filter1_d)">
<path d="M229.731 50.3555C220.126 55.889 221.281 71.4818 221.281 71.4818C221.281 71.4818 217.055 70.0733 217.055 63.7361C212.014 66.6581 208.605 72.2767 208.605 78.5239C208.605 87.8582 216.172 95.4249 225.506 95.4249C234.84 95.4249 242.407 87.8582 242.407 78.5239C242.407 64.7915 229.731 61.9746 229.731 50.3555ZM226.991 89.6009C223.594 90.4485 220.154 88.3815 219.308 84.9851C218.461 81.5886 220.528 78.1483 223.924 77.302C232.124 75.2576 233.152 70.6467 233.152 70.6467C233.152 70.6467 237.24 87.0457 226.991 89.6009Z" fill="#E8E8E8"/>
</g>
<g filter="url(#filter2_d)">
<path d="M226.653 91.8072C222.269 92.8526 217.828 90.2986 216.737 86.1009C215.643 81.9032 218.31 77.6517 222.695 76.6051C233.28 74.0787 234.607 68.3799 234.607 68.3799C234.607 68.3799 239.884 88.6474 226.653 91.8072Z" fill="#E8E8E8"/>
</g>
<path d="M14.1508 133.476C15.2124 133.476 16.1388 133.153 16.9326 132.507C17.725 131.86 18.1657 131.052 18.2509 130.082H21.0652C21.0114 131.084 20.6683 132.038 20.0361 132.943C19.4026 133.848 18.5563 134.57 17.4947 135.11C16.4443 135.648 15.3301 135.917 14.1508 135.917C11.7822 135.917 9.89551 135.126 8.49084 133.541C7.09745 131.946 6.40137 129.769 6.40137 127.011V126.509C6.40137 124.807 6.71183 123.293 7.33279 121.967C7.955 120.641 8.84514 119.612 10.0019 118.88C11.1712 118.146 12.5483 117.781 14.1345 117.781C16.085 117.781 17.7038 118.368 18.9908 119.542C20.2878 120.717 20.9788 122.241 21.0652 124.117H18.2509C18.1657 122.985 17.7363 122.059 16.9651 121.336C16.204 120.604 15.26 120.237 14.1345 120.237C12.6235 120.237 11.4492 120.787 10.6129 121.886C9.78785 122.975 9.37596 124.554 9.37596 126.623V127.189C9.37596 129.203 9.78785 130.756 10.6129 131.844C11.4391 132.933 12.6184 133.476 14.1508 133.476ZM50.483 118.104H53.4576V135.594H50.483V122.84L42.4594 135.594H39.4848V118.104H42.4594V130.875L50.483 118.104ZM80.0285 133.476C81.0902 133.476 82.0178 133.153 82.8103 132.507C83.604 131.86 84.0435 131.052 84.1298 130.082H86.9429C86.8891 131.084 86.5461 132.038 85.9138 132.943C85.2816 133.848 84.4341 134.57 83.3737 135.11C82.3233 135.648 81.2078 135.917 80.0285 135.917C77.6599 135.917 75.7732 135.126 74.3698 133.541C72.9764 131.946 72.2791 129.769 72.2791 127.011V126.509C72.2791 124.807 72.5896 123.293 73.2118 121.967C73.834 120.641 74.7228 119.612 75.8809 118.88C77.0489 118.146 78.4261 117.781 80.0135 117.781C81.964 117.781 83.5828 118.368 84.8685 119.542C86.1655 120.717 86.8578 122.241 86.9429 124.117H84.1298C84.0435 122.985 83.6153 122.059 82.8428 121.336C82.0817 120.604 81.139 120.237 80.0135 120.237C78.5012 120.237 77.3281 120.787 76.4918 121.886C75.6668 122.975 75.2537 124.554 75.2537 126.623V127.189C75.2537 129.203 75.6668 130.756 76.4918 131.844C77.3168 132.933 78.4962 133.476 80.0285 133.476ZM118.033 120.529H112.197V135.594H109.222V120.529H103.497V118.104H118.033V120.529ZM141.678 135.917C139.32 135.917 137.402 135.141 135.922 133.59C134.444 132.028 133.704 129.942 133.704 127.334V126.785C133.704 125.049 134.03 123.503 134.684 122.145C135.349 120.777 136.271 119.709 137.449 118.944C138.64 118.169 139.926 117.781 141.309 117.781C143.57 117.781 145.329 118.529 146.582 120.027C147.837 121.525 148.464 123.67 148.464 126.462V127.706H136.678C136.721 129.43 137.219 130.826 138.173 131.893C139.138 132.949 140.36 133.476 141.84 133.476C142.89 133.476 143.779 133.261 144.509 132.83C145.238 132.4 145.875 131.827 146.422 131.116L148.239 132.54C146.781 134.792 144.594 135.917 141.678 135.917ZM141.309 120.237C140.109 120.237 139.101 120.679 138.286 121.563C137.471 122.435 136.967 123.665 136.775 125.249H145.489V125.022C145.404 123.503 144.996 122.328 144.267 121.498C143.539 120.658 142.552 120.237 141.309 120.237ZM176.756 131.633L182.673 118.104H186.387V135.594H183.413V122.872L177.785 135.594H175.727L169.987 122.597V135.594H167.012V118.104H170.871L176.756 131.633ZM209.245 124.133H213.763C215.736 124.154 217.295 124.673 218.443 125.685C219.59 126.698 220.163 128.072 220.163 129.807C220.163 131.553 219.573 132.954 218.394 134.011C217.215 135.066 215.629 135.594 213.634 135.594H206.27V118.104H209.245V124.133ZM226.369 135.594H223.378V118.104H226.369V135.594ZM209.245 126.574V133.153H213.667C214.782 133.153 215.645 132.868 216.256 132.297C216.867 131.715 217.172 130.922 217.172 129.921C217.172 128.95 216.872 128.158 216.272 127.545C215.682 126.919 214.851 126.596 213.78 126.574H209.245ZM268.579 126.687C268.579 124.974 268.911 123.433 269.577 122.064C270.251 120.695 271.183 119.64 272.374 118.896C273.575 118.153 274.943 117.781 276.474 117.781C278.844 117.781 280.756 118.605 282.215 120.253C283.682 121.902 284.416 124.095 284.416 126.833V127.043C284.416 128.745 284.089 130.276 283.436 131.633C282.793 132.98 281.867 134.032 280.655 134.786C279.453 135.541 278.07 135.917 276.506 135.917C274.149 135.917 272.235 135.094 270.767 133.445C269.309 131.796 268.579 129.613 268.579 126.897V126.687ZM271.569 127.043C271.569 128.983 272.015 130.54 272.906 131.715C273.806 132.889 275.005 133.476 276.506 133.476C278.018 133.476 279.218 132.884 280.107 131.698C280.998 130.503 281.444 128.832 281.444 126.687C281.444 124.769 280.987 123.217 280.077 122.032C279.175 120.835 277.973 120.237 276.474 120.237C275.005 120.237 273.822 120.824 272.922 122C272.02 123.174 271.569 124.855 271.569 127.043ZM315.539 120.529H309.704V135.594H306.729V120.529H301.004V118.104H315.539V120.529ZM331.788 126.687C331.788 124.974 332.122 123.433 332.785 122.064C333.46 120.695 334.394 119.64 335.583 118.896C336.784 118.153 338.15 117.781 339.683 117.781C342.052 117.781 343.968 118.605 345.422 120.253C346.893 121.902 347.627 124.095 347.627 126.833V127.043C347.627 128.745 347.3 130.276 346.645 131.633C346.002 132.98 345.074 134.032 343.864 134.786C342.664 135.541 341.281 135.917 339.717 135.917C337.357 135.917 335.443 135.094 333.975 133.445C332.517 131.796 331.788 129.613 331.788 126.897V126.687ZM334.78 127.043C334.78 128.983 335.224 130.54 336.113 131.715C337.014 132.889 338.216 133.476 339.717 133.476C341.227 133.476 342.429 132.884 343.318 131.698C344.207 130.503 344.651 128.832 344.651 126.687C344.651 124.769 344.198 123.217 343.285 122.032C342.384 120.835 341.185 120.237 339.683 120.237C338.216 120.237 337.031 120.824 336.129 122C335.229 123.174 334.78 124.855 334.78 127.043ZM380.406 135.594H377.43V120.576H369.424V135.594H366.432V118.104H380.406V135.594ZM414.26 118.104V135.594H411.27V120.576H405.352L404.999 127.124C404.806 130.131 404.303 132.281 403.487 133.574C402.683 134.867 401.404 135.541 399.643 135.594H398.455V132.959L399.308 132.895C400.272 132.788 400.963 132.227 401.382 131.214C401.798 130.201 402.066 128.326 402.186 125.588L402.507 118.104H414.26ZM441.073 135.917C438.715 135.917 436.798 135.141 435.318 133.59C433.839 132.028 433.097 129.942 433.097 127.334V126.785C433.097 125.049 433.424 123.503 434.079 122.145C434.744 120.777 435.666 119.709 436.844 118.944C438.035 118.169 439.322 117.781 440.704 117.781C442.965 117.781 444.724 118.529 445.978 120.027C447.232 121.525 447.86 123.67 447.86 126.462V127.706H436.073C436.116 129.43 436.614 130.826 437.569 131.893C438.533 132.949 439.754 133.476 441.234 133.476C442.285 133.476 443.174 133.261 443.903 132.83C444.633 132.4 445.27 131.827 445.818 131.116L447.633 132.54C446.175 134.792 443.99 135.917 441.073 135.917ZM440.704 120.237C439.502 120.237 438.496 120.679 437.682 121.563C436.866 122.435 436.362 123.665 436.17 125.249H444.884V125.022C444.799 123.503 444.39 122.328 443.664 121.498C442.934 120.658 441.946 120.237 440.704 120.237ZM480.346 135.594H477.374V128.125H469.381V135.594H466.392V118.104H469.381V125.685H477.374V118.104H480.346V135.594ZM511.214 118.104H514.187V135.594H511.214V122.84L503.19 135.594H500.216V118.104H503.19V130.875L511.214 118.104ZM547.078 118.104V135.594H544.087V128.789H539.601L535.501 135.594H532.286L536.658 128.336C535.544 127.926 534.688 127.297 534.085 126.445C533.497 125.583 533.202 124.58 533.202 123.438C533.202 121.843 533.796 120.561 534.987 119.591C536.176 118.61 537.769 118.114 539.763 118.104H547.078ZM536.192 123.471C536.192 124.322 536.483 125.012 537.061 125.54C537.64 126.057 538.406 126.321 539.361 126.331H544.087V120.529H539.81C538.707 120.529 537.827 120.803 537.174 121.353C536.52 121.892 536.192 122.597 536.192 123.471Z" fill="white"/>
<defs>
<filter id="filter0_d" x="0" y="0" width="565.278" height="107" filterUnits="userSpaceOnUse" color-interpolation-filters="sRGB">
<feFlood flood-opacity="0" result="BackgroundImageFix"/>
<feColorMatrix in="SourceAlpha" type="matrix" values="0 0 0 0 0 0 0 0 0 0 0 0 0 0 0 0 0 0 127 0"/>
<feOffset dx="1"/>
<feGaussianBlur stdDeviation="3.5"/>
<feColorMatrix type="matrix" values="0 0 0 0 0 0 0 0 0 0 0 0 0 0 0 0 0 0 0.15 0"/>
<feBlend mode="normal" in2="BackgroundImageFix" result="effect1_dropShadow"/>
<feBlend mode="normal" in="SourceGraphic" in2="effect1_dropShadow" result="shape"/>
</filter>
<filter id="filter1_d" x="202.605" y="43.3555" width="47.8021" height="59.0694" filterUnits="userSpaceOnUse" color-interpolation-filters="sRGB">
<feFlood flood-opacity="0" result="BackgroundImageFix"/>
<feColorMatrix in="SourceAlpha" type="matrix" values="0 0 0 0 0 0 0 0 0 0 0 0 0 0 0 0 0 0 127 0"/>
<feOffset dx="1"/>
<feGaussianBlur stdDeviation="3.5"/>
<feColorMatrix type="matrix" values="0 0 0 0 0.129412 0 0 0 0 0.133333 0 0 0 0 0.184314 0 0 0 1 0"/>
<feBlend mode="normal" in2="BackgroundImageFix" result="effect1_dropShadow"/>
<feBlend mode="normal" in="SourceGraphic" in2="effect1_dropShadow" result="shape"/>
</filter>
<filter id="filter2_d" x="211.491" y="62.3799" width="31.1544" height="35.6614" filterUnits="userSpaceOnUse" color-interpolation-filters="sRGB">
<feFlood flood-opacity="0" result="BackgroundImageFix"/>
<feColorMatrix in="SourceAlpha" type="matrix" values="0 0 0 0 0 0 0 0 0 0 0 0 0 0 0 0 0 0 127 0"/>
<feOffset dx="1"/>
<feGaussianBlur stdDeviation="3"/>
<feColorMatrix type="matrix" values="0 0 0 0 0.129412 0 0 0 0 0.133333 0 0 0 0 0.184314 0 0 0 1 0"/>
<feBlend mode="normal" in2="BackgroundImageFix" result="effect1_dropShadow"/>
<feBlend mode="normal" in="SourceGraphic" in2="effect1_dropShadow" result="shape"/>
</filter>
</defs>
</svg>
